<svg id="visual" viewBox="0 0 1280 320" width="1280" height="320" xmlns="http://www.w3.org/2000/svg"
  xmlns:xlink="http://www.w3.org/1999/xlink" version="1.1">
  <path
    d="M891 320L857 320L857 299L773 299L773 277L792 277L792 256L878 256L878 235L932 235L932 213L852 213L852 192L819 192L819 171L796 171L796 149L796 149L796 128L818 128L818 107L887 107L887 85L872 85L872 64L931 64L931 43L828 43L828 21L852 21L852 0L1280 0L1280 21L1280 21L1280 43L1280 43L1280 64L1280 64L1280 85L1280 85L1280 107L1280 107L1280 128L1280 128L1280 149L1280 149L1280 171L1280 171L1280 192L1280 192L1280 213L1280 213L1280 235L1280 235L1280 256L1280 256L1280 277L1280 277L1280 299L1280 299L1280 320L1280 320Z"
    fill="#003049"></path>
  <path
    d="M862 320L915 320L915 299L907 299L907 277L944 277L944 256L950 256L950 235L950 235L950 213L853 213L853 192L921 192L921 171L918 171L918 149L966 149L966 128L808 128L808 107L970 107L970 85L957 85L957 64L946 64L946 43L967 43L967 21L843 21L843 0L1280 0L1280 21L1280 21L1280 43L1280 43L1280 64L1280 64L1280 85L1280 85L1280 107L1280 107L1280 128L1280 128L1280 149L1280 149L1280 171L1280 171L1280 192L1280 192L1280 213L1280 213L1280 235L1280 235L1280 256L1280 256L1280 277L1280 277L1280 299L1280 299L1280 320L1280 320Z"
    fill="#002d43"></path>
  <path
    d="M905 320L989 320L989 299L896 299L896 277L866 277L866 256L1023 256L1023 235L962 235L962 213L1014 213L1014 192L935 192L935 171L1001 171L1001 149L972 149L972 128L973 128L973 107L905 107L905 85L967 85L967 64L921 64L921 43L930 43L930 21L988 21L988 0L1280 0L1280 21L1280 21L1280 43L1280 43L1280 64L1280 64L1280 85L1280 85L1280 107L1280 107L1280 128L1280 128L1280 149L1280 149L1280 171L1280 171L1280 192L1280 192L1280 213L1280 213L1280 235L1280 235L1280 256L1280 256L1280 277L1280 277L1280 299L1280 299L1280 320L1280 320Z"
    fill="#00293e"></path>
  <path
    d="M966 320L1025 320L1025 299L1016 299L1016 277L1008 277L1008 256L1036 256L1036 235L1062 235L1062 213L1027 213L1027 192L1063 192L1063 171L927 171L927 149L1041 149L1041 128L1009 128L1009 107L1060 107L1060 85L1014 85L1014 64L1021 64L1021 43L929 43L929 21L1061 21L1061 0L1280 0L1280 21L1280 21L1280 43L1280 43L1280 64L1280 64L1280 85L1280 85L1280 107L1280 107L1280 128L1280 128L1280 149L1280 149L1280 171L1280 171L1280 192L1280 192L1280 213L1280 213L1280 235L1280 235L1280 256L1280 256L1280 277L1280 277L1280 299L1280 299L1280 320L1280 320Z"
    fill="#002639"></path>
  <path
    d="M1090 320L1068 320L1068 299L1048 299L1048 277L1037 277L1037 256L1065 256L1065 235L1078 235L1078 213L1038 213L1038 192L1013 192L1013 171L989 171L989 149L1025 149L1025 128L1009 128L1009 107L1063 107L1063 85L1006 85L1006 64L1023 64L1023 43L988 43L988 21L1047 21L1047 0L1280 0L1280 21L1280 21L1280 43L1280 43L1280 64L1280 64L1280 85L1280 85L1280 107L1280 107L1280 128L1280 128L1280 149L1280 149L1280 171L1280 171L1280 192L1280 192L1280 213L1280 213L1280 235L1280 235L1280 256L1280 256L1280 277L1280 277L1280 299L1280 299L1280 320L1280 320Z"
    fill="#002234"></path>
  <path
    d="M1088 320L1066 320L1066 299L1052 299L1052 277L1057 277L1057 256L1053 256L1053 235L1145 235L1145 213L1125 213L1125 192L1115 192L1115 171L1058 171L1058 149L1084 149L1084 128L1121 128L1121 107L1090 107L1090 85L1070 85L1070 64L1120 64L1120 43L1133 43L1133 21L1071 21L1071 0L1280 0L1280 21L1280 21L1280 43L1280 43L1280 64L1280 64L1280 85L1280 85L1280 107L1280 107L1280 128L1280 128L1280 149L1280 149L1280 171L1280 171L1280 192L1280 192L1280 213L1280 213L1280 235L1280 235L1280 256L1280 256L1280 277L1280 277L1280 299L1280 299L1280 320L1280 320Z"
    fill="#011f2f"></path>
  <path
    d="M1172 320L1179 320L1179 299L1187 299L1187 277L1173 277L1173 256L1181 256L1181 235L1168 235L1168 213L1159 213L1159 192L1123 192L1123 171L1198 171L1198 149L1176 149L1176 128L1158 128L1158 107L1181 107L1181 85L1180 85L1180 64L1175 64L1175 43L1143 43L1143 21L1114 21L1114 0L1280 0L1280 21L1280 21L1280 43L1280 43L1280 64L1280 64L1280 85L1280 85L1280 107L1280 107L1280 128L1280 128L1280 149L1280 149L1280 171L1280 171L1280 192L1280 192L1280 213L1280 213L1280 235L1280 235L1280 256L1280 256L1280 277L1280 277L1280 299L1280 299L1280 320L1280 320Z"
    fill="#011b2a"></path>
  <path
    d="M1186 320L1234 320L1234 299L1214 299L1214 277L1230 277L1230 256L1198 256L1198 235L1220 235L1220 213L1203 213L1203 192L1184 192L1184 171L1203 171L1203 149L1239 149L1239 128L1196 128L1196 107L1204 107L1204 85L1193 85L1193 64L1180 64L1180 43L1187 43L1187 21L1203 21L1203 0L1280 0L1280 21L1280 21L1280 43L1280 43L1280 64L1280 64L1280 85L1280 85L1280 107L1280 107L1280 128L1280 128L1280 149L1280 149L1280 171L1280 171L1280 192L1280 192L1280 213L1280 213L1280 235L1280 235L1280 256L1280 256L1280 277L1280 277L1280 299L1280 299L1280 320L1280 320Z"
    fill="#001825"></path>
</svg>
