<svg xmlns="http://www.w3.org/2000/svg" version="1.1" xmlns:xlink="http://www.w3.org/1999/xlink"
  xmlns:svgjs="http://svgjs.dev/svgjs" viewBox="0 0 800 800">
  <defs>
    <linearGradient x1="50%" y1="0%" x2="50%" y2="100%" id="ffflurry-grad"
      gradientTransform="rotate(270)">
      <stop stop-color="#001825" stop-opacity="1" offset="0%"></stop>
      <stop stop-color="#d62828" stop-opacity="1" offset="45%"></stop>
      <stop stop-color="#fbbe48" stop-opacity="1" offset="100%"></stop>
    </linearGradient>
  </defs>
  <rect width="100%" height="100%" fill="#001825"></rect>
  <g fill="url(#ffflurry-grad)">
    <rect width="377" height="3" x="440.5" y="646.5" rx="1.5" transform="rotate(30, 629, 648)"
      opacity="0.18"></rect>
    <rect width="99" height="3" x="402.5" y="759.5" rx="1.5" transform="rotate(30, 452, 761)"
      opacity="0.09"></rect>
    <rect width="226" height="3" x="-87" y="326.5" rx="1.5" transform="rotate(30, 26, 328)"
      opacity="0.72"></rect>
    <rect width="183" height="3" x="477.5" y="704.5" rx="1.5" transform="rotate(30, 569, 706)"
      opacity="0.97"></rect>
    <rect width="367" height="3" x="-2.5" y="119.5" rx="1.5" transform="rotate(30, 181, 121)"
      opacity="0.42"></rect>
    <rect width="81" height="3" x="728.5" y="288.5" rx="1.5" transform="rotate(30, 769, 290)"
      opacity="0.35"></rect>
    <rect width="344" height="3" x="-61" y="197.5" rx="1.5" transform="rotate(30, 111, 199)"
      opacity="0.51"></rect>
    <rect width="106" height="3" x="-25" y="480.5" rx="1.5" transform="rotate(30, 28, 482)"
      opacity="0.23"></rect>
    <rect width="217" height="3" x="-41.5" y="281.5" rx="1.5" transform="rotate(30, 67, 283)"
      opacity="0.93"></rect>
    <rect width="30" height="3" x="509" y="506.5" rx="1.5" transform="rotate(30, 524, 508)"
      opacity="0.76"></rect>
    <rect width="91" height="3" x="423.5" y="676.5" rx="1.5" transform="rotate(30, 469, 678)"
      opacity="0.67"></rect>
    <rect width="397" height="3" x="371.5" y="48.5" rx="1.5" transform="rotate(30, 570, 50)"
      opacity="0.65"></rect>
    <rect width="317" height="3" x="599.5" y="523.5" rx="1.5" transform="rotate(30, 758, 525)"
      opacity="0.57"></rect>
    <rect width="57" height="3" x="705.5" y="50.5" rx="1.5" transform="rotate(30, 734, 52)"
      opacity="0.77"></rect>
    <rect width="317" height="3" x="491.5" y="546.5" rx="1.5" transform="rotate(30, 650, 548)"
      opacity="0.53"></rect>
    <rect width="331" height="3" x="472.5" y="163.5" rx="1.5" transform="rotate(30, 638, 165)"
      opacity="0.78"></rect>
    <rect width="55" height="3" x="376.5" y="514.5" rx="1.5" transform="rotate(30, 404, 516)"
      opacity="0.19"></rect>
    <rect width="263" height="3" x="54.5" y="418.5" rx="1.5" transform="rotate(30, 186, 420)"
      opacity="0.82"></rect>
    <rect width="356" height="3" x="78" y="46.5" rx="1.5" transform="rotate(30, 256, 48)"
      opacity="0.67"></rect>
    <rect width="136" height="3" x="652" y="441.5" rx="1.5" transform="rotate(30, 720, 443)"
      opacity="0.26"></rect>
    <rect width="196" height="3" x="190" y="343.5" rx="1.5" transform="rotate(30, 288, 345)"
      opacity="0.27"></rect>
    <rect width="355" height="3" x="-1.5" y="530.5" rx="1.5" transform="rotate(30, 176, 532)"
      opacity="0.63"></rect>
    <rect width="98" height="3" x="13" y="629.5" rx="1.5" transform="rotate(30, 62, 631)"
      opacity="0.53"></rect>
    <rect width="328" height="3" x="225" y="88.5" rx="1.5" transform="rotate(30, 389, 90)"
      opacity="0.95"></rect>
    <rect width="185" height="3" x="-62.5" y="567.5" rx="1.5" transform="rotate(30, 30, 569)"
      opacity="0.21"></rect>
    <rect width="79" height="3" x="279.5" y="406.5" rx="1.5" transform="rotate(30, 319, 408)"
      opacity="0.28"></rect>
    <rect width="122" height="3" x="445" y="362.5" rx="1.5" transform="rotate(30, 506, 364)"
      opacity="0.15"></rect>
    <rect width="64" height="3" x="681" y="752.5" rx="1.5" transform="rotate(30, 713, 754)"
      opacity="0.40"></rect>
    <rect width="95" height="3" x="270.5" y="770.5" rx="1.5" transform="rotate(30, 318, 772)"
      opacity="0.47"></rect>
    <rect width="205" height="3" x="-10.5" y="766.5" rx="1.5" transform="rotate(30, 92, 768)"
      opacity="0.73"></rect>
    <rect width="293" height="3" x="-74.5" y="407.5" rx="1.5" transform="rotate(30, 72, 409)"
      opacity="0.58"></rect>
    <rect width="208" height="3" x="403" y="443.5" rx="1.5" transform="rotate(30, 507, 445)"
      opacity="0.48"></rect>
    <rect width="92" height="3" x="454" y="249.5" rx="1.5" transform="rotate(30, 500, 251)"
      opacity="0.48"></rect>
    <rect width="368" height="3" x="-15" y="743.5" rx="1.5" transform="rotate(30, 169, 745)"
      opacity="0.10"></rect>
    <rect width="59" height="3" x="287.5" y="245.5" rx="1.5" transform="rotate(30, 317, 247)"
      opacity="0.62"></rect>
    <rect width="121" height="3" x="595.5" y="249.5" rx="1.5" transform="rotate(30, 656, 251)"
      opacity="0.73"></rect>
    <rect width="70" height="3" x="225" y="712.5" rx="1.5" transform="rotate(30, 260, 714)"
      opacity="0.58"></rect>
    <rect width="263" height="3" x="590.5" y="139.5" rx="1.5" transform="rotate(30, 722, 141)"
      opacity="0.90"></rect>
    <rect width="306" height="3" x="373" y="152.5" rx="1.5" transform="rotate(30, 526, 154)"
      opacity="0.46"></rect>
    <rect width="110" height="3" x="642" y="315.5" rx="1.5" transform="rotate(30, 697, 317)"
      opacity="0.40"></rect>
    <rect width="153" height="3" x="295.5" y="696.5" rx="1.5" transform="rotate(30, 372, 698)"
      opacity="0.73"></rect>
    <rect width="330" height="3" x="185" y="583.5" rx="1.5" transform="rotate(30, 350, 585)"
      opacity="0.16"></rect>
    <rect width="224" height="3" x="131" y="196.5" rx="1.5" transform="rotate(30, 243, 198)"
      opacity="0.27"></rect>
    <rect width="85" height="3" x="518.5" y="771.5" rx="1.5" transform="rotate(30, 561, 773)"
      opacity="0.22"></rect>
    <rect width="154" height="3" x="329" y="352.5" rx="1.5" transform="rotate(30, 406, 354)"
      opacity="0.64"></rect>
    <rect width="87" height="3" x="-18.5" y="767.5" rx="1.5" transform="rotate(30, 25, 769)"
      opacity="0.61"></rect>
    <rect width="121" height="3" x="704.5" y="200.5" rx="1.5" transform="rotate(30, 765, 202)"
      opacity="0.31"></rect>
    <rect width="332" height="3" x="-88" y="50.5" rx="1.5" transform="rotate(30, 78, 52)"
      opacity="0.13"></rect>
    <rect width="226" height="3" x="-18" y="516.5" rx="1.5" transform="rotate(30, 95, 518)"
      opacity="0.64"></rect>
    <rect width="218" height="3" x="301" y="436.5" rx="1.5" transform="rotate(30, 410, 438)"
      opacity="0.46"></rect>
    <rect width="153" height="3" x="325.5" y="244.5" rx="1.5" transform="rotate(30, 402, 246)"
      opacity="0.47"></rect>
    <rect width="108" height="3" x="476" y="572.5" rx="1.5" transform="rotate(30, 530, 574)"
      opacity="0.60"></rect>
    <rect width="228" height="3" x="-61" y="702.5" rx="1.5" transform="rotate(30, 53, 704)"
      opacity="0.07"></rect>
    <rect width="323" height="3" x="434.5" y="330.5" rx="1.5" transform="rotate(30, 596, 332)"
      opacity="0.28"></rect>
    <rect width="203" height="3" x="519.5" y="439.5" rx="1.5" transform="rotate(30, 621, 441)"
      opacity="0.65"></rect>
    <rect width="135" height="3" x="680.5" y="648.5" rx="1.5" transform="rotate(30, 748, 650)"
      opacity="0.88"></rect>
    <rect width="83" height="3" x="-6.5" y="161.5" rx="1.5" transform="rotate(30, 35, 163)"
      opacity="0.76"></rect>
    <rect width="389" height="3" x="87.5" y="484.5" rx="1.5" transform="rotate(30, 282, 486)"
      opacity="0.25"></rect>
    <rect width="242" height="3" x="23" y="303.5" rx="1.5" transform="rotate(30, 144, 305)"
      opacity="0.87"></rect>
    <rect width="200" height="3" x="363" y="609.5" rx="1.5" transform="rotate(30, 463, 611)"
      opacity="0.48"></rect>
    <rect width="254" height="3" x="133" y="602.5" rx="1.5" transform="rotate(30, 260, 604)"
      opacity="0.74"></rect>
    <rect width="230" height="3" x="47" y="638.5" rx="1.5" transform="rotate(30, 162, 640)"
      opacity="0.70"></rect>
    <rect width="57" height="3" x="189.5" y="303.5" rx="1.5" transform="rotate(30, 218, 305)"
      opacity="0.38"></rect>
    <rect width="257" height="3" x="618.5" y="376.5" rx="1.5" transform="rotate(30, 747, 378)"
      opacity="0.96"></rect>
  </g>
</svg>
